<svg height="512pt" viewBox="-83 0 512 512.00025" width="512pt" xmlns="http://www.w3.org/2000/svg">
    <g fill="#F2F2F2">
        <path d="m335.148438 175.949219-125.78125 75.464843c71.058593 54.898438 98.253906 122.777344 98.253906 228.078126v18.171874zm0 0"/>
        <path d="m345.214844 57.617188-14.839844-9.84375c-95.839844-63.699219-219.707031-63.699219-315.519531 0l-14.855469 9.84375 7.105469 83.824218 12.546875 6.273438c17.6875-34.230469 52.871094-56.761719 92.949218-56.761719 22.007813 0 42.785157 7.167969 60.058594 19.273437 17.558594-12.28125 38.296875-19.273437 59.953125-19.273437 39.777344 0 74.726563 22.195313 92.546875 55.996094l13.152344-7.890625zm0 0"/>
        <path d="m112.601562 120.957031c-28.476562 0-53.480468 15.914063-66.183593 40.136719l53.617187 26.808594c16.730469-22.972656 43.234375-36.847656 72.332032-36.925782-13.925782-18.359374-35.863282-30.019531-59.765626-30.019531zm0 0"/>
        <path d="m248.472656 192.957031 50.996094-30.597656c-12.476562-24.945313-37.882812-41.402344-66.855469-41.402344-13.390625 0-26.367187 3.664063-37.761719 10.316407 6.707032 8.46875 12.078126 17.984374 15.9375 28.382812 15.355469 7.253906 28.445313 18.816406 37.683594 33.300781zm0 0"/>
        <path d="m127.511719 201.640625c3.105469 1.648437 25.5 11.972656 55.171875 31.0625 16.109375-10.175781 19.550781-11.894531 39.726562-24.109375-10.949218-16.6875-29.40625-27.628906-49.804687-27.628906-17.695313-.003906-33.867188 7.753906-45.09375 20.675781zm0 0"/>
        <path d="m38.824219 512h238.796875v-32.507812c0-125.800782-40.550782-189.535157-160.726563-249.613282l-106.777343-53.382812zm118.78125-120.011719h30.003906v30h-30.003906zm-60.007813-30.003906h30.003906v30.003906h-30.003906zm0 60.003906h30.003906v30.003907h-30.003906zm0 0"/>
    </g>
</svg>